<svg xmlns="http://www.w3.org/2000/svg" version="1.1" xmlns:xlink="http://www.w3.org/1999/xlink" xmlns:svgjs="http://svgjs.dev/svgjs" width="1500" height="511" viewBox="0 0 1500 511"><g transform="matrix(1,0,0,1,-0.9090909090909918,-0.48462552477261056)"><svg viewBox="0 0 396 135" data-background-color="#000000" preserveAspectRatio="xMidYMid meet" height="511" width="1500" xmlns="http://www.w3.org/2000/svg" xmlns:xlink="http://www.w3.org/1999/xlink"><g id="tight-bounds" transform="matrix(1,0,0,1,0.2400000000000091,0.1280321836483438)"><svg viewBox="0 0 395.52 134.7439356327033" height="134.7439356327033" width="395.52"><g><svg viewBox="0 0 657.9611210685414 224.15117047451673" height="134.7439356327033" width="395.52"><g transform="matrix(1,0,0,1,0,30.97892442882251)"><svg viewBox="0 0 395.52000000000004 162.1933216168717" height="162.1933216168717" width="395.52000000000004"><g id="textblocktransform"><svg viewBox="0 0 395.52000000000004 162.1933216168717" height="162.1933216168717" width="395.52000000000004" id="textblock"><g><svg viewBox="0 0 395.52000000000004 162.1933216168717" height="162.1933216168717" width="395.52000000000004"><g transform="matrix(1,0,0,1,0,0)"><svg width="395.52000000000004" viewBox="3.7 -35 85.35 35" height="162.1933216168717" data-palette-color="url(#27564073-bd0d-479c-b4b9-060b493f6a7c)"></svg></g></svg></g></svg></g></svg></g><g transform="matrix(1,0,0,1,433.80995059402466,0)"><svg viewBox="0 0 224.15117047451673 224.15117047451673" height="224.15117047451673" width="224.15117047451673"><g data-palette-color="url(#ceec6246-5994-4b8e-8f88-671d68b4cbb7)"></g></svg></g></svg></g><defs></defs><mask id="c547e1a2-440d-4c09-b0fa-d1aafbc03257"><g id="SvgjsG1009"><svg viewBox="0 0 395.52 134.7439356327033" height="134.7439356327033" width="395.52"><g><svg viewBox="0 0 657.9611210685414 224.15117047451673" height="134.7439356327033" width="395.52"><g transform="matrix(1,0,0,1,0,30.97892442882251)"><svg viewBox="0 0 395.52000000000004 162.1933216168717" height="162.1933216168717" width="395.52000000000004"><g id="SvgjsG1008"><svg viewBox="0 0 395.52000000000004 162.1933216168717" height="162.1933216168717" width="395.52000000000004" id="SvgjsSvg1007"><g><svg viewBox="0 0 395.52000000000004 162.1933216168717" height="162.1933216168717" width="395.52000000000004"><g transform="matrix(1,0,0,1,0,0)"><svg width="395.52000000000004" viewBox="3.7 -35 85.35 35" height="162.1933216168717" data-palette-color="url(#27564073-bd0d-479c-b4b9-060b493f6a7c)"><path d="M16.4 0L3.7 0 3.7-35 16-35Q19.7-35 22.13-33.83 24.55-32.65 25.75-30.63 26.95-28.6 26.95-26.1L26.95-26.1Q26.95-22.7 25.13-20.75 23.3-18.8 20.75-18.05L20.75-18.05Q22.7-17.7 24.3-16.5 25.9-15.3 26.83-13.5 27.75-11.7 27.75-9.55L27.75-9.55Q27.75-6.9 26.45-4.73 25.15-2.55 22.6-1.28 20.05 0 16.4 0L16.4 0ZM7.9-31.5L7.9-19.7 15.7-19.7Q19.05-19.7 20.85-21.28 22.65-22.85 22.65-25.65L22.65-25.65Q22.65-28.3 20.88-29.9 19.1-31.5 15.55-31.5L15.55-31.5 7.9-31.5ZM7.9-16.35L7.9-3.5 15.95-3.5Q19.55-3.5 21.5-5.18 23.45-6.85 23.45-9.85L23.45-9.85Q23.45-12.8 21.4-14.58 19.35-16.35 15.85-16.35L15.85-16.35 7.9-16.35ZM55.45 0L33.8 0 33.8-35 55.45-35 55.45-31.55 38-31.55 38-19.35 53.95-19.35 53.95-15.95 38-15.95 38-3.45 55.45-3.45 55.45 0ZM66.2 0L62 0 62-35 66.2-35 84.84-6.95 84.84-35 89.05-35 89.05 0 84.84 0 66.2-28.05 66.2 0Z" opacity="1" transform="matrix(1,0,0,1,0,0)" fill="white" class="wordmark-text-0" id="SvgjsPath1006"></path></svg></g></svg></g></svg></g></svg></g><g transform="matrix(1,0,0,1,433.80995059402466,0)"><svg viewBox="0 0 224.15117047451673 224.15117047451673" height="224.15117047451673" width="224.15117047451673"><g data-palette-color="url(#ceec6246-5994-4b8e-8f88-671d68b4cbb7)"><rect width="61.267986596367905" height="224.15117047451673" fill="black" stroke="transparent" x="0" fill-opacity="1"></rect><rect width="61.267986596367905" height="224.15117047451673" fill="black" stroke="transparent" x="74.7170568248389" fill-opacity="0.75"></rect><rect width="61.267986596367905" height="224.15117047451673" fill="black" stroke="transparent" x="149.4341136496778" fill-opacity="0.5"></rect></g></svg></g></svg></g><defs><mask></mask></defs></svg><rect width="395.52" height="134.7439356327033" fill="black" stroke="none" visibility="hidden"></rect></g></mask><linearGradient x1="0" x2="1" y1="0.578" y2="0.595" id="27564073-bd0d-479c-b4b9-060b493f6a7c"><stop stop-color="#dede50" offset="0"></stop><stop stop-color="#559c49" offset="1"></stop></linearGradient><rect width="395.52" height="134.7439356327033" fill="url(#27564073-bd0d-479c-b4b9-060b493f6a7c)" mask="url(#c547e1a2-440d-4c09-b0fa-d1aafbc03257)" data-fill-palette-color="primary"></rect><mask id="ffed4c4b-5a91-419e-8ed2-a72664128ed9"><g id="SvgjsG1024"><svg viewBox="0 0 395.52 134.7439356327033" height="134.7439356327033" width="395.52"><g><svg viewBox="0 0 657.9611210685414 224.15117047451673" height="134.7439356327033" width="395.52"><g transform="matrix(1,0,0,1,0,30.97892442882251)"><svg viewBox="0 0 395.52000000000004 162.1933216168717" height="162.1933216168717" width="395.52000000000004"><g id="SvgjsG1023"><svg viewBox="0 0 395.52000000000004 162.1933216168717" height="162.1933216168717" width="395.52000000000004" id="SvgjsSvg1022"><g><svg viewBox="0 0 395.52000000000004 162.1933216168717" height="162.1933216168717" width="395.52000000000004"><g transform="matrix(1,0,0,1,0,0)"><svg width="395.52000000000004" viewBox="3.7 -35 85.35 35" height="162.1933216168717" data-palette-color="url(#27564073-bd0d-479c-b4b9-060b493f6a7c)"></svg></g></svg></g></svg></g></svg></g><g transform="matrix(1,0,0,1,433.80995059402466,0)"><svg viewBox="0 0 224.15117047451673 224.15117047451673" height="224.15117047451673" width="224.15117047451673"><g data-palette-color="url(#ceec6246-5994-4b8e-8f88-671d68b4cbb7)"><rect width="61.267986596367905" height="224.15117047451673" fill="white" stroke="transparent" x="0" fill-opacity="1"></rect><rect width="61.267986596367905" height="224.15117047451673" fill="white" stroke="transparent" x="74.7170568248389" fill-opacity="0.75"></rect><rect width="61.267986596367905" height="224.15117047451673" fill="white" stroke="transparent" x="149.4341136496778" fill-opacity="0.5"></rect></g></svg></g></svg></g><defs><mask></mask></defs><mask><g id="SvgjsG1021"><svg viewBox="0 0 395.52 134.7439356327033" height="134.7439356327033" width="395.52"><g><svg viewBox="0 0 657.9611210685414 224.15117047451673" height="134.7439356327033" width="395.52"><g transform="matrix(1,0,0,1,0,30.97892442882251)"><svg viewBox="0 0 395.52000000000004 162.1933216168717" height="162.1933216168717" width="395.52000000000004"><g id="SvgjsG1020"><svg viewBox="0 0 395.52000000000004 162.1933216168717" height="162.1933216168717" width="395.52000000000004" id="SvgjsSvg1019"><g><svg viewBox="0 0 395.52000000000004 162.1933216168717" height="162.1933216168717" width="395.52000000000004"><g transform="matrix(1,0,0,1,0,0)"><svg width="395.52000000000004" viewBox="3.7 -35 85.35 35" height="162.1933216168717" data-palette-color="url(#27564073-bd0d-479c-b4b9-060b493f6a7c)"><path d="M16.4 0L3.7 0 3.7-35 16-35Q19.7-35 22.13-33.83 24.55-32.65 25.75-30.63 26.95-28.6 26.95-26.1L26.95-26.1Q26.95-22.7 25.13-20.75 23.3-18.8 20.75-18.05L20.75-18.05Q22.7-17.7 24.3-16.5 25.9-15.3 26.83-13.5 27.75-11.7 27.75-9.55L27.75-9.55Q27.75-6.9 26.45-4.73 25.15-2.55 22.6-1.28 20.05 0 16.4 0L16.4 0ZM7.9-31.5L7.9-19.7 15.7-19.7Q19.05-19.7 20.85-21.28 22.65-22.85 22.65-25.65L22.65-25.65Q22.65-28.3 20.88-29.9 19.1-31.5 15.55-31.5L15.55-31.5 7.9-31.5ZM7.9-16.35L7.9-3.5 15.95-3.5Q19.55-3.5 21.5-5.18 23.45-6.85 23.45-9.85L23.45-9.85Q23.45-12.8 21.4-14.58 19.35-16.35 15.85-16.35L15.85-16.35 7.9-16.35ZM55.45 0L33.8 0 33.8-35 55.45-35 55.45-31.55 38-31.55 38-19.35 53.95-19.35 53.95-15.95 38-15.95 38-3.45 55.45-3.45 55.45 0ZM66.2 0L62 0 62-35 66.2-35 84.84-6.95 84.84-35 89.05-35 89.05 0 84.84 0 66.2-28.05 66.2 0Z" opacity="1" transform="matrix(1,0,0,1,0,0)" fill="black" class="wordmark-text-0" id="SvgjsPath1018"></path></svg></g></svg></g></svg></g></svg></g><g transform="matrix(1,0,0,1,433.80995059402466,0)"><svg viewBox="0 0 224.15117047451673 224.15117047451673" height="224.15117047451673" width="224.15117047451673"><g data-palette-color="url(#ceec6246-5994-4b8e-8f88-671d68b4cbb7)"><rect width="61.267986596367905" height="224.15117047451673" fill="black" stroke="transparent" x="0" fill-opacity="1"></rect><rect width="61.267986596367905" height="224.15117047451673" fill="black" stroke="transparent" x="74.7170568248389" fill-opacity="0.75"></rect><rect width="61.267986596367905" height="224.15117047451673" fill="black" stroke="transparent" x="149.4341136496778" fill-opacity="0.5"></rect></g></svg></g></svg></g><defs><mask></mask></defs></svg><rect width="395.52" height="134.7439356327033" fill="black" stroke="none" visibility="hidden"></rect></g></mask></svg><rect width="395.52" height="134.7439356327033" fill="black" stroke="none" visibility="hidden"></rect></g></mask><linearGradient x1="0" x2="1" y1="0.578" y2="0.595" id="ceec6246-5994-4b8e-8f88-671d68b4cbb7"><stop stop-color="#dede50" offset="0"></stop><stop stop-color="#559c49" offset="1"></stop></linearGradient><rect width="395.52" height="134.7439356327033" fill="url(#ceec6246-5994-4b8e-8f88-671d68b4cbb7)" mask="url(#ffed4c4b-5a91-419e-8ed2-a72664128ed9)" data-fill-palette-color="accent"></rect></svg><rect width="395.52" height="134.7439356327033" fill="none" stroke="none" visibility="hidden"></rect></g></svg></g></svg>